<svg
  data-name="Sparelama"
  xmlns="http://www.w3.org/2000/svg"
  width="100%"
  height="100%"
  viewbox="0 0 492.315 610.01"
>
  <g data-name="hele-lamaen">
      <path
      data-name="lamaens-omkrets"
      fill="none"
      stroke="black"
      stroke-miterlimit="10"
      stroke-width="10"
      d="m47.266 269.648-3.734 1.518c-.79-3.975-2.167-7.781-2.188-11.594-.065-11.784.389-23.571.632-35.356.02-1 .33-2.2-.107-2.956-5.677-9.758-2.806-19.943-1.639-30.042.247-2.129 2.016-4.531-1.545-5.807-.55-.2-.56-2.128-.679-3.272a67.334 67.334 0 0 1 3.163-28.092c.592-1.818 2.473-3.831-.689-5.489-.57-.3-.3-2.82.07-4.185 2.121-7.868 4.408-15.69 6.589-23.542.531-1.909.943-3.858 1.288-5.81.556-3.15-.61-4.6-3.958-5.5-6.369-1.721-12.478-4.348-18.769-6.388a85.585 85.585 0 0 0-9.2-2.145C9.422 99.533 6.031 94.494 5.2 88.017c-.846-6.58.888-12.739 7.437-16.062 4.435-2.251 9.173-3.9 13.728-5.92 4.7-2.088 9.473-4.088 13.962-6.578 1.63-.905 2.392-3.256 3.8-4.7 2.936-3 6.041-5.842 9.481-9.134C50.85 36.1 47.8 25.755 44.9 15.371c-.415-1.483-.131-3.161-.17-4.749 1.709.154 3.623-.141 5.094.532 9.731 4.452 16.056 12.761 22.788 20.585 1.143 1.33 2.25 2.691 3.374 4.037l1.631-.462c-.6-5.954-1.255-11.9-1.76-17.864-.242-2.853-.192-5.73-.275-8.6 2.562 1.494 5.446 2.621 7.628 4.545a69.485 69.485 0 0 1 19.813 28.392 9.794 9.794 0 0 0 3.559 4.4A42.747 42.747 0 0 1 122.669 65.5c4.207 10.137 8.18 20.375 12.025 30.655.517 1.383-.477 3.267-.44 4.911a16.137 16.137 0 0 0 .863 4.12c2.216 7.465 4.834 14.836 6.553 22.412.72 3.178 2.17 7.079-1.313 10.209-.574.516.411 2.752.655 4.2 1.406 8.329 5.105 17.1 3.628 24.878-1.866 9.835 3.019 17.928 2.937 27.06-.084 9.241 1.491 18.5 2.453 27.743a44.959 44.959 0 0 0 1.6 6.085c4.705-.982 9.236-1.727 13.655-2.9 6.283-1.665 11.956-3.341 19.069-1.293 6.877 1.98 14.856-.052 22.347.041 6.409.08 12.812.674 19.218 1.039a9.334 9.334 0 0 0 1.491.06c20.873-2.166 40.982 2.921 61.092 6.995 20.207 4.093 40.353 8.146 60.974 9.562 2.753.19 5.221 3.209 8.054 3.8 6.327 1.32 12.839 1.729 19.2 2.922 3.267.613 6.355 2.15 9.547 3.2 2.831.929 5.743 1.628 8.536 2.654 8.8 3.23 17.14 2.924 26.336.093 6.417-1.975 14.139-.451 21.131.54 2.933.416 5.481 3.505 8.218 5.357 7.364 4.982 14.735 9.952 22.915 15.475l-4.048 2.778c2.179 2.934 4.585 5.7 6.446 8.791a98.829 98.829 0 0 1 7.11 13.61c.622 1.534 3.9 5.045-1.218 6.131a12.269 12.269 0 0 0 .762 4.149c5.427 10.642 6.561 21.343 2.073 32.752-2.392 6.082-3.111 12.8-5.238 19.013-1.886 5.505-4.382 5.631-7.849.964-1.984-2.671-3.505-5.813-5.9-8.012a16.793 16.793 0 0 0-7.706-3.888c-2.5-.5-4.441.579-4.135 4.335 3.5 43.008 6.625 86.047 10.31 129.039.478 5.577 3.132 11.122 5.53 16.335 2.335 5.075 2.52 9.488 1.38 15.181-3.839 19.174-11.238 37.648-10.783 57.74.221 9.7-1.746 19.453-2.778 29.737-9.99 0-20.239.07-30.484-.09-1.26-.019-3.468-1.157-3.554-1.958a12.341 12.341 0 0 1 1.187-5.545c.312-.789 1.444-1.372 2.324-1.8 9.392-4.568 12.1-12.918 12.131-22.374.02-6.975-1.157-13.95-1.243-20.932-.078-6.278.647-12.564.915-18.851.057-1.344.182-3.28-.592-3.974a142.522 142.522 0 0 1-33.661-43.949c-.456 4.684-.389 7.993-1.156 11.1-2.1 8.487-3.72 17.229-7.027 25.254-7.478 18.148-16.288 35.75-23.638 53.945-2.656 6.575-2.689 14.209-4.116 22.5-9.806.9-20.835 1.534-31.828-.793-2.821-.6-3.432-4.365-1.409-7.252a8.267 8.267 0 0 1 2.208-2c17.534-11.632 24.354-30.043 30.447-48.746 2.047-6.285 2.707-13.023 3.972-19.56.969-5.01.356-9.784-3.309-13.533-10.057-10.289-15.56-23.1-20.525-36.238-4.342-11.495-8.7-22.982-13.218-34.895-40.975 20.686-82.583 19.381-125.5 3.839-1.907 10.307-4.093 18.843-4.976 27.512-2.533 24.847-5.433 49.712-6.421 74.64-.62 15.625-4.948 29.643-10.871 43.681-2.618 6.206-3.9 12.977-6 20.214-10.44.9-21.593 1.753-32.471-1.219-1.261-6.64 3.227-8.963 7.481-10.43 8.792-3.032 13.413-10.185 14.871-17.933 2.26-12.017 2.827-24.486 2.721-36.752-.045-5.3-3.493-10.6-5.518-15.854-1.313-3.4-2.848-6.72-4.738-11.139-2.481 6.731-5.35 12.544-6.747 18.69-3.51 15.443-7.5 30.655-13.934 45.21-2.465 5.575-3.45 11.788-5.468 17.586-.59 1.7-2.379 4.193-3.674 4.228-9.271.249-18.556-.019-27.835-.211-.724-.015-1.434-.7-2.041-1.015-.678-6.518 4.4-7.984 8.456-10.294 1.13-.644 2.764-.869 3.421-1.807 7.818-11.157 16.163-21.887 15.3-36.927-1.915-33.417-3.185-66.871-4.831-100.3-.466-9.479-1.22-18.949-2.107-28.4a6.989 6.989 0 0 0-2.636-4.2c-8.523-6.66-17.346-12.944-25.754-19.742a81.264 81.264 0 0 1-23.989-30.889 96.52 96.52 0 0 0-7.4-13.588 90.81 90.81 0 0 1-15.015-49.973c-.043-9.699-1.179-19.393-1.851-29.561Z"
    />
    <path
      data-name="pengesprekk"
      fill="black"
      d="M235.281 240.566c-10.141 1.16-20.309 2.136-30.414 3.553-5.688.8-10.961 3.151-14.094 8.228-1.038 1.682-.371 4.416-.484 6.669 12.94-1.987 25.824-5.051 38.832-5.731 25.208-1.318 50.513-.622 75.4 3.973 10.468 1.933 20.481 6.334 30.7 9.614 4.132-4.454 4.293-7.838-.838-10.33a112.937 112.937 0 0 0-22.308-8.307c-20.926-5.11-42.3-7.064-63.825-7.365-4.324-.06-8.647-.2-12.97-.3"
    />
    <path
      data-name="skyggen-til-pengesprekk"
      fill="gray"
      d="M335.222 266.871c-10.22-3.279-20.233-7.68-30.7-9.613-24.887-4.6-50.192-5.292-75.4-3.974-13.008.681-25.892 3.744-38.832 5.731 2.295 3.27 5.357 2.929 8.83 2.329 11.552-2 23.144-3.775 34.745-5.472 2.08-.3 4.273.168 6.414.282 14.178.6 28.351 1.309 42.534 1.757 15.97.5 31.187 4.425 46.24 9.4 1.809.6 4.1-.261 6.17-.445"
    />
    <path
      data-name="oye"
      fill="black"
      d="M57.574 67c6.435 0 6.445-10 0-10s-6.445 10 0 10"
    />
  </g>
  <g id="penger"></g>
</svg>